<svg id="visual" viewBox="0 0 1920 1080" width="1920" height="1080" xmlns="http://www.w3.org/2000/svg" xmlns:xlink="http://www.w3.org/1999/xlink" version="1.1"><path d="M0 828L35.5 829.5C71 831 142 834 213.2 819.3C284.3 804.7 355.7 772.3 426.8 753.3C498 734.3 569 728.7 640 735.8C711 743 782 763 853.2 772C924.3 781 995.7 779 1066.8 776.8C1138 774.7 1209 772.3 1280 772.8C1351 773.3 1422 776.7 1493.2 770.8C1564.3 765 1635.7 750 1706.8 747.7C1778 745.3 1849 755.7 1884.5 760.8L1920 766L1920 1081L1884.5 1081C1849 1081 1778 1081 1706.8 1081C1635.7 1081 1564.3 1081 1493.2 1081C1422 1081 1351 1081 1280 1081C1209 1081 1138 1081 1066.8 1081C995.7 1081 924.3 1081 853.2 1081C782 1081 711 1081 640 1081C569 1081 498 1081 426.8 1081C355.7 1081 284.3 1081 213.2 1081C142 1081 71 1081 35.5 1081L0 1081Z" fill="#415a77"></path><path d="M0 778L35.5 789C71 800 142 822 213.2 824C284.3 826 355.7 808 426.8 814.5C498 821 569 852 640 863.5C711 875 782 867 853.2 849C924.3 831 995.7 803 1066.8 796.8C1138 790.7 1209 806.3 1280 811C1351 815.7 1422 809.3 1493.2 814.2C1564.3 819 1635.7 835 1706.8 828.8C1778 822.7 1849 794.3 1884.5 780.2L1920 766L1920 1081L1884.5 1081C1849 1081 1778 1081 1706.8 1081C1635.7 1081 1564.3 1081 1493.2 1081C1422 1081 1351 1081 1280 1081C1209 1081 1138 1081 1066.8 1081C995.7 1081 924.3 1081 853.2 1081C782 1081 711 1081 640 1081C569 1081 498 1081 426.8 1081C355.7 1081 284.3 1081 213.2 1081C142 1081 71 1081 35.5 1081L0 1081Z" fill="#384f69"></path><path d="M0 863L35.5 868.7C71 874.3 142 885.7 213.2 890.5C284.3 895.3 355.7 893.7 426.8 884.3C498 875 569 858 640 855.5C711 853 782 865 853.2 868.8C924.3 872.7 995.7 868.3 1066.8 865.2C1138 862 1209 860 1280 862.3C1351 864.7 1422 871.3 1493.2 876C1564.3 880.7 1635.7 883.3 1706.8 883.5C1778 883.7 1849 881.3 1884.5 880.2L1920 879L1920 1081L1884.5 1081C1849 1081 1778 1081 1706.8 1081C1635.7 1081 1564.3 1081 1493.2 1081C1422 1081 1351 1081 1280 1081C1209 1081 1138 1081 1066.8 1081C995.7 1081 924.3 1081 853.2 1081C782 1081 711 1081 640 1081C569 1081 498 1081 426.8 1081C355.7 1081 284.3 1081 213.2 1081C142 1081 71 1081 35.5 1081L0 1081Z" fill="#2f445c"></path><path d="M0 896L35.5 889.3C71 882.7 142 869.3 213.2 875C284.3 880.7 355.7 905.3 426.8 909.3C498 913.3 569 896.7 640 886.2C711 875.7 782 871.3 853.2 870.7C924.3 870 995.7 873 1066.8 878.5C1138 884 1209 892 1280 899.2C1351 906.3 1422 912.7 1493.2 911.8C1564.3 911 1635.7 903 1706.8 904.7C1778 906.3 1849 917.7 1884.5 923.3L1920 929L1920 1081L1884.5 1081C1849 1081 1778 1081 1706.8 1081C1635.7 1081 1564.3 1081 1493.2 1081C1422 1081 1351 1081 1280 1081C1209 1081 1138 1081 1066.8 1081C995.7 1081 924.3 1081 853.2 1081C782 1081 711 1081 640 1081C569 1081 498 1081 426.8 1081C355.7 1081 284.3 1081 213.2 1081C142 1081 71 1081 35.5 1081L0 1081Z" fill="#26394f"></path><path d="M0 940L35.5 939.8C71 939.7 142 939.3 213.2 935.5C284.3 931.7 355.7 924.3 426.8 924.2C498 924 569 931 640 937.8C711 944.7 782 951.3 853.2 958.8C924.3 966.3 995.7 974.7 1066.8 974.5C1138 974.3 1209 965.7 1280 956.2C1351 946.7 1422 936.3 1493.2 933.8C1564.3 931.3 1635.7 936.7 1706.8 933.8C1778 931 1849 920 1884.5 914.5L1920 909L1920 1081L1884.5 1081C1849 1081 1778 1081 1706.8 1081C1635.7 1081 1564.3 1081 1493.2 1081C1422 1081 1351 1081 1280 1081C1209 1081 1138 1081 1066.8 1081C995.7 1081 924.3 1081 853.2 1081C782 1081 711 1081 640 1081C569 1081 498 1081 426.8 1081C355.7 1081 284.3 1081 213.2 1081C142 1081 71 1081 35.5 1081L0 1081Z" fill="#1d2f42"></path><path d="M0 965L35.5 962.8C71 960.7 142 956.3 213.2 961.2C284.3 966 355.7 980 426.8 981C498 982 569 970 640 969C711 968 782 978 853.2 984.7C924.3 991.3 995.7 994.7 1066.8 990.2C1138 985.7 1209 973.3 1280 966C1351 958.7 1422 956.3 1493.2 960C1564.3 963.7 1635.7 973.3 1706.8 978.7C1778 984 1849 985 1884.5 985.5L1920 986L1920 1081L1884.5 1081C1849 1081 1778 1081 1706.8 1081C1635.7 1081 1564.3 1081 1493.2 1081C1422 1081 1351 1081 1280 1081C1209 1081 1138 1081 1066.8 1081C995.7 1081 924.3 1081 853.2 1081C782 1081 711 1081 640 1081C569 1081 498 1081 426.8 1081C355.7 1081 284.3 1081 213.2 1081C142 1081 71 1081 35.5 1081L0 1081Z" fill="#152536"></path><path d="M0 1048L35.5 1042C71 1036 142 1024 213.2 1018.3C284.3 1012.7 355.7 1013.3 426.8 1018.2C498 1023 569 1032 640 1034.5C711 1037 782 1033 853.2 1028.3C924.3 1023.7 995.7 1018.3 1066.8 1017.2C1138 1016 1209 1019 1280 1024.7C1351 1030.3 1422 1038.7 1493.2 1038C1564.3 1037.3 1635.7 1027.7 1706.8 1019.8C1778 1012 1849 1006 1884.5 1003L1920 1000L1920 1081L1884.5 1081C1849 1081 1778 1081 1706.8 1081C1635.7 1081 1564.3 1081 1493.2 1081C1422 1081 1351 1081 1280 1081C1209 1081 1138 1081 1066.8 1081C995.7 1081 924.3 1081 853.2 1081C782 1081 711 1081 640 1081C569 1081 498 1081 426.8 1081C355.7 1081 284.3 1081 213.2 1081C142 1081 71 1081 35.5 1081L0 1081Z" fill="#0d1b2a"></path></svg>